<svg xmlns="http://www.w3.org/2000/svg" width="40" height="40" viewBox="220 300.001 40 40"><g fill="#000002"><path d="M249.264 318.642l-11.768-7.705c-.29-.19-.608-.29-.92-.29-.832 0-1.46.678-1.46 1.576v15.555c0 .9.628 1.576 1.46 1.576.313 0 .63-.1.92-.29l11.768-7.706c.49-.32.77-.816.77-1.36.002-.54-.28-1.035-.77-1.356zm-11.887 7.798v-12.88l9.835 6.44-9.835 6.44z"/><path d="M240 300c-11.028 0-20 8.973-20 20s8.972 20 20 20 20-8.97 20-20-8.972-20-20-20zm0 37.74c-9.78 0-17.74-7.958-17.74-17.74s7.96-17.738 17.74-17.738 17.74 7.958 17.74 17.74S249.78 337.74 240 337.74z"/></g></svg>