<svg xmlns="http://www.w3.org/2000/svg" width="40" height="40" viewBox="220 299.999 40 40"><g fill="#000002"><path d="M240 300c-11.028 0-20 8.97-20 20 0 11.027 8.972 20 20 20s20-8.973 20-20c0-11.03-8.972-20-20-20zm0 37.738c-9.782 0-17.74-7.958-17.74-17.74 0-9.78 7.96-17.738 17.74-17.738 9.78 0 17.74 7.958 17.74 17.74 0 9.78-7.958 17.738-17.74 17.738z"/><path d="M246.347 311.015h-12.694c-1.454 0-2.637 1.183-2.637 2.637v12.694c0 1.454 1.183 2.637 2.637 2.637h12.694c1.454 0 2.637-1.183 2.637-2.637v-12.694c0-1.454-1.183-2.637-2.637-2.637zm.377 15.33c0 .205-.173.378-.377.378h-12.694c-.204 0-.377-.173-.377-.377v-12.694c0-.204.173-.377.377-.377h12.694c.204 0 .377.173.377.377v12.694z"/></g></svg>