<?xml version="1.0" encoding="utf-8"?>
<!-- Generator: Adobe Illustrator 17.0.2, SVG Export Plug-In . SVG Version: 6.00 Build 0)  -->
<!DOCTYPE svg PUBLIC "-//W3C//DTD SVG 1.1//EN" "http://www.w3.org/Graphics/SVG/1.1/DTD/svg11.dtd">
<svg version="1.1" id="Layer_1" xmlns="http://www.w3.org/2000/svg" xmlns:xlink="http://www.w3.org/1999/xlink" x="0px" y="0px"
	 width="19.375px" height="19.376px" viewBox="-42.994 -37.677 19.375 19.376"
	 enable-background="new -42.994 -37.677 19.375 19.376" xml:space="preserve">
<path d="M-24.119-18.302h-8.485c-0.276,0-0.5-0.224-0.5-0.5c0-0.276,0.224-0.5,0.5-0.5h7.278l-17.521-17.521
	c-0.195-0.195-0.195-0.512,0-0.707c0.195-0.195,0.512-0.195,0.707,0l17.521,17.521v-7.278c0-0.276,0.224-0.5,0.5-0.5
	c0.139,0,0.263,0.057,0.354,0.147c0.091,0.091,0.146,0.216,0.147,0.354v8.485c0,0.276-0.224,0.5-0.5,0.5L-24.119-18.302z"/>
</svg>
