<?xml version="1.0" encoding="utf-8"?>
<!-- Generator: Adobe Illustrator 17.0.2, SVG Export Plug-In . SVG Version: 6.00 Build 0)  -->
<!DOCTYPE svg PUBLIC "-//W3C//DTD SVG 1.1//EN" "http://www.w3.org/Graphics/SVG/1.1/DTD/svg11.dtd">
<svg version="1.1" id="Layer_1" xmlns="http://www.w3.org/2000/svg" xmlns:xlink="http://www.w3.org/1999/xlink" x="0px" y="0px"
	 width="19.376px" height="19.375px" viewBox="-23.619 -18.301 19.376 19.375"
	 enable-background="new -23.619 -18.301 19.376 19.375" xml:space="preserve">
<path d="M-4.245-17.801v8.485c0,0.276-0.224,0.5-0.5,0.5c-0.276,0-0.5-0.224-0.5-0.5v-7.278L-22.765,0.927
	c-0.195,0.195-0.512,0.195-0.707,0c-0.195-0.195-0.195-0.512,0-0.707l17.521-17.521h-7.278c-0.276,0-0.5-0.224-0.5-0.5
	c0-0.139,0.057-0.263,0.147-0.354c0.091-0.091,0.216-0.146,0.354-0.147h8.485c0.276,0,0.5,0.224,0.5,0.5L-4.245-17.801z"/>
</svg>
