<?xml version="1.0" encoding="utf-8"?>
<!-- Generator: Adobe Illustrator 17.0.2, SVG Export Plug-In . SVG Version: 6.00 Build 0)  -->
<!DOCTYPE svg PUBLIC "-//W3C//DTD SVG 1.1//EN" "http://www.w3.org/Graphics/SVG/1.1/DTD/svg11.dtd">
<svg version="1.1" id="Capa_1" xmlns="http://www.w3.org/2000/svg" xmlns:xlink="http://www.w3.org/1999/xlink" x="0px" y="0px"
	 width="40px" height="40px" viewBox="220 300.001 40 40" enable-background="new 220 300.001 40 40" xml:space="preserve">
<g>
	<path fill="#000002" d="M249.264,318.642l-11.768-7.705c-0.29-0.189-0.608-0.29-0.92-0.29c-0.832,0-1.46,0.678-1.46,1.576v15.555
		c0,0.899,0.628,1.576,1.46,1.576c0.313,0,0.631-0.1,0.92-0.29l11.768-7.706c0.49-0.321,0.771-0.816,0.771-1.359
		C250.036,319.458,249.754,318.963,249.264,318.642z M237.377,326.44v-12.879l9.835,6.439L237.377,326.44z"/>
	<path fill="#000002" d="M240,300.001c-11.028,0-20,8.972-20,20s8.972,20,20,20s20-8.972,20-20S251.028,300.001,240,300.001z
		 M240,337.74c-9.781,0-17.739-7.958-17.739-17.739s7.958-17.739,17.739-17.739s17.739,7.958,17.739,17.739
		S249.782,337.74,240,337.74z"/>
</g>
</svg>
