<?xml version="1.0" encoding="utf-8"?>
<!-- Generator: Adobe Illustrator 17.0.2, SVG Export Plug-In . SVG Version: 6.00 Build 0)  -->
<!DOCTYPE svg PUBLIC "-//W3C//DTD SVG 1.1//EN" "http://www.w3.org/Graphics/SVG/1.1/DTD/svg11.dtd">
<svg version="1.1" id="Capa_1" xmlns="http://www.w3.org/2000/svg" xmlns:xlink="http://www.w3.org/1999/xlink" x="0px" y="0px"
	 width="40px" height="40px" viewBox="220 299.999 40 40" enable-background="new 220 299.999 40 40" xml:space="preserve">
<g>
	<path fill="#000002" d="M240,299.999c-11.028,0-20,8.972-20,20c0,11.028,8.972,20,20,20c11.028,0,20-8.972,20-20
		C260,308.971,251.028,299.999,240,299.999z M240,337.738c-9.782,0-17.739-7.958-17.739-17.739c0-9.782,7.958-17.739,17.739-17.739
		c9.781,0,17.739,7.958,17.739,17.739C257.739,329.781,249.782,337.738,240,337.738z"/>
	<path fill="#000002" d="M246.347,311.015h-12.694c-1.454,0-2.637,1.183-2.637,2.637v12.694c0,1.454,1.183,2.637,2.637,2.637h12.694
		c1.454,0,2.637-1.183,2.637-2.637v-12.694C248.985,312.198,247.801,311.015,246.347,311.015z M246.724,326.346
		c0,0.204-0.173,0.377-0.377,0.377h-12.694c-0.204,0-0.377-0.173-0.377-0.377v-12.694c0-0.204,0.173-0.377,0.377-0.377h12.694
		c0.204,0,0.377,0.173,0.377,0.377V326.346z"/>
</g>
</svg>
