<?xml version="1.0" encoding="utf-8"?>
<!-- Generator: Adobe Illustrator 17.0.2, SVG Export Plug-In . SVG Version: 6.00 Build 0)  -->
<!DOCTYPE svg PUBLIC "-//W3C//DTD SVG 1.1//EN" "http://www.w3.org/Graphics/SVG/1.1/DTD/svg11.dtd">
<svg version="1.1" id="Layer_1" xmlns="http://www.w3.org/2000/svg" xmlns:xlink="http://www.w3.org/1999/xlink" x="0px" y="0px"
	 width="13.033px" height="19px" viewBox="0 0 13.033 19" enable-background="new 0 0 13.033 19" xml:space="preserve">
<path fill="#828C8D" d="M9.971,19H3.062C1.402,19,0,17.541,0,15.813v-3.33c0-1.435,1.283-2.569,2.601-2.933
	c-0.87-1.053-1.345-2.394-1.345-3.818C1.256,2.571,3.616,0,6.517,0c2.901,0,5.26,2.571,5.26,5.732c0,1.413-0.468,2.745-1.325,3.795
	c1.31,0.335,2.581,1.466,2.581,2.957v3.33C13.033,17.541,11.631,19,9.971,19L9.971,19z M3.614,10.506
	c-0.04,0.01-0.08,0.015-0.121,0.015c-1.078,0-2.395,0.906-2.395,1.963v3.33c0,1.112,0.918,2.088,1.963,2.088h6.909
	c1.045,0,1.963-0.976,1.963-2.088v-3.33c0-1.087-1.246-1.963-2.277-1.963c-0.072,0-0.142-0.014-0.206-0.04
	c-0.873,0.643-1.884,0.982-2.934,0.982C5.479,11.463,4.478,11.132,3.614,10.506L3.614,10.506z M6.517,1.099
	c-2.294,0-4.161,2.079-4.161,4.633s1.867,4.632,4.161,4.632c2.294,0,4.161-2.078,4.161-4.632S8.811,1.099,6.517,1.099L6.517,1.099z"
	/>
</svg>
